HIERARCHY
ROOT Hips
{
    OFFSET 0.000000 0.000000 0.000000
    CHANNELS 6 Xposition Yposition Zposition Zrotation Xrotation Yrotation
    JOINT Spine
    {
        OFFSET -0.000000 14.517291 0.000000
        CHANNELS 3 Zrotation Xrotation Yrotation
        JOINT Spine1
        {
            OFFSET -0.000000 37.558300 0.000000
            CHANNELS 3 Zrotation Xrotation Yrotation
            JOINT Neck
            {
                OFFSET -0.000000 37.404057 3.400369
                CHANNELS 3 Zrotation Xrotation Yrotation
                JOINT Head
                {
                    OFFSET -0.000000 24.785618 -3.540803
                    CHANNELS 3 Zrotation Xrotation Yrotation
                    End Site
                    {
                        OFFSET -0.000000 35.408028 0.000000
                    }
                }
            }
            JOINT LeftShoulder
            {
                OFFSET 6.992933 33.973492 -0.192664
                CHANNELS 3 Zrotation Xrotation Yrotation
                JOINT LeftArm
                {
                    OFFSET 21.527611 0.000000 0.000000
                    CHANNELS 3 Zrotation Xrotation Yrotation
                    JOINT LeftForeArm
                    {
                        OFFSET 56.353916 0.000000 0.000000
                        CHANNELS 3 Zrotation Xrotation Yrotation
                        JOINT LeftHand
                        {
                            OFFSET 47.774071 0.000000 0.000000
                            CHANNELS 3 Zrotation Xrotation Yrotation
                            End Site
                            {
                                OFFSET 26.556021 0.000000 0.000000
                            }
                        }
                    }
                }
            }
            JOINT RightShoulder
            {
                OFFSET -7.065357 33.973492 -0.192664
                CHANNELS 3 Zrotation Xrotation Yrotation
                JOINT RightArm
                {
                    OFFSET -21.527611 0.000000 0.000000
                    CHANNELS 3 Zrotation Xrotation Yrotation
                    JOINT RightForeArm
                    {
                        OFFSET -56.353916 0.000000 0.000000
                        CHANNELS 3 Zrotation Xrotation Yrotation
                        JOINT RightHand
                        {
                            OFFSET -47.774071 0.000000 0.000000
                            CHANNELS 3 Zrotation Xrotation Yrotation
                            End Site
                            {
                                OFFSET -26.556021 0.000000 0.000000
                            }
                        }
                    }
                }
            }
        }
    }
    JOINT LeftUpLeg
    {
        OFFSET 17.704014 0.000000 0.000000
        CHANNELS 3 Zrotation Xrotation Yrotation
        JOINT LeftLeg
        {
            OFFSET -0.000000 -81.181816 0.000000
            CHANNELS 3 Zrotation Xrotation Yrotation
            JOINT LeftFoot
            {
                OFFSET -0.000000 -62.821102 0.000000
                CHANNELS 3 Zrotation Xrotation Yrotation
                JOINT LeftToeBase
                {
                    OFFSET -0.000000 -11.507608 26.556021
                    CHANNELS 3 Zrotation Xrotation Yrotation
                    End Site
                    {
                        OFFSET -0.000000 0.000000 7.081605
                    }
                }
            }
        }
    }
    JOINT RightUpLeg
    {
        OFFSET -17.704014 0.000000 0.000000
        CHANNELS 3 Zrotation Xrotation Yrotation
        JOINT RightLeg
        {
            OFFSET -0.000000 -81.181816 0.000000
            CHANNELS 3 Zrotation Xrotation Yrotation
            JOINT RightFoot
            {
                OFFSET -0.000000 -62.821102 0.000000
                CHANNELS 3 Zrotation Xrotation Yrotation
                JOINT RightToeBase
                {
                    OFFSET -0.000000 -11.507608 26.556021
                    CHANNELS 3 Zrotation Xrotation Yrotation
                    End Site
                    {
                        OFFSET -0.000000 0.000000 7.081605
                    }
                }
            }
        }
    }
}
MOTION
Frames:    8
Frame Time:    0.008333
-8.568637    142.358505    48.796249    5.276225    6.816842    -52.849754    0.651206    3.688921    -1.912690    0.591292    -3.087334    -0.615196    16.857389    -0.755125    9.525303    -7.801984    6.679983    6.620374    12.235529    3.244623    -16.130096    -8.776943    -3.735404    -24.484571    14.587121    -2.730706    -51.991421    -1.174355    4.898983    -44.077454    -6.901750    -1.722235    -6.739098    28.996517    -23.114803    39.359730    8.043018    -18.546261    105.847725    13.909940    -24.994497    29.979980    44.355202    -24.019932    15.340502    -26.126266    37.617851    -4.461500    -13.910172    -15.628534    41.058796    0.000000    0.000000    0.000000    -32.874592    -23.783678    -17.701588    5.156934    35.530499    -6.458409    21.141857    -2.822894    0.672940    0.000000    0.000000    0.000000    
-8.458393    142.280807    48.995205    5.305423    6.644579    -52.931973    0.575999    3.633200    -1.905176    0.604409    -3.025339    -0.613502    16.887932    -0.673328    9.575914    -7.901680    6.639497    6.669472    12.197956    3.223938    -16.138117    -8.793816    -3.863511    -24.499510    14.400335    -2.561912    -51.854240    -1.060227    4.908010    -44.139824    -6.980429    -1.774045    -6.715918    29.107906    -23.091263    39.495617    7.981599    -18.615662    105.824936    13.944538    -24.966312    30.040874    44.222530    -23.892326    15.557141    -26.233557    37.771484    -4.453182    -13.782742    -15.743317    40.899570    0.000000    0.000000    0.000000    -33.050087    -23.712517    -17.539129    5.153364    35.463120    -6.376342    21.189241    -2.926757    0.598683    0.000000    0.000000    0.000000    
-8.358787    142.211380    49.186974    5.317729    6.493562    -52.998600    0.506124    3.567331    -1.916560    0.632647    -2.946412    -0.617841    16.889126    -0.567296    9.608058    -7.958704    6.539856    6.707080    12.165329    3.213640    -16.139574    -8.824033    -4.006246    -24.502377    14.196333    -2.412655    -51.780796    -0.868662    4.868264    -44.238960    -7.024098    -1.777081    -6.651469    29.200399    -23.125210    39.637402    7.896130    -18.719734    105.813110    14.035525    -24.930077    30.103279    44.111702    -23.783722    15.723611    -26.354959    37.913628    -4.438387    -13.764327    -15.899811    40.792366    0.000000    0.000000    0.000000    -33.188118    -23.624813    -17.410696    5.127850    35.380829    -6.321511    21.245672    -3.020398    0.554828    0.000000    0.000000    0.000000    
-8.266420    142.156189    49.363144    5.323818    6.381113    -53.037975    0.465347    3.498370    -1.941960    0.665045    -2.882805    -0.626432    16.872553    -0.531523    9.657171    -7.970210    6.507089    6.763065    12.107588    3.191072    -16.127964    -8.837335    -4.128253    -24.518944    14.042952    -2.238430    -51.680073    -0.808052    4.926721    -44.254425    -7.066144    -1.741888    -6.645067    29.310480    -23.132954    39.857288    7.804775    -18.896528    105.823135    14.082720    -24.973114    30.146139    44.041512    -23.706686    15.863615    -26.489716    38.049114    -4.456937    -13.624304    -15.986501    40.711418    0.000000    0.000000    0.000000    -33.288898    -23.526665    -17.337786    5.068597    35.273201    -6.230125    21.295097    -3.091092    0.536649    0.000000    0.000000    0.000000    
-8.175358    142.115997    49.528980    5.309545    6.285961    -53.058037    0.453400    3.443305    -1.982347    0.682249    -2.822135    -0.639992    16.905035    -0.527125    9.712755    -8.025146    6.531072    6.813595    12.068588    3.165514    -16.098282    -8.866078    -4.237316    -24.555403    13.924919    -2.059026    -51.545670    -0.737337    4.999592    -44.380703    -7.048043    -1.660817    -6.647742    29.360819    -23.151299    40.113873    7.701913    -19.151718    105.847206    14.137621    -25.072552    30.233198    43.974339    -23.651974    15.956172    -26.595768    38.189671    -4.469887    -13.510387    -16.074915    40.630474    0.000000    0.000000    0.000000    -33.353012    -23.407528    -17.300102    4.983965    35.148140    -6.158033    21.324348    -3.123484    0.552347    0.000000    0.000000    0.000000    
-8.087078    142.088150    49.682415    5.287264    6.209352    -53.067032    0.441279    3.398692    -2.037391    0.721363    -2.781344    -0.657841    16.951330    -0.502914    9.748424    -8.113491    6.539197    6.840234    12.024075    3.164474    -16.078503    -8.891229    -4.266907    -24.560808    13.940036    -1.968799    -51.419933    -0.722391    5.072270    -44.427803    -7.098373    -1.664351    -6.629481    29.494171    -23.140078    40.318771    7.573808    -19.343636    105.865501    14.273482    -25.066423    30.266859    43.918751    -23.618242    16.040506    -26.674238    38.338490    -4.489978    -13.435731    -16.173340    40.562088    0.000000    0.000000    0.000000    -33.388683    -23.279526    -17.313154    4.853229    35.006340    -6.030002    21.385069    -3.137609    0.555493    0.000000    0.000000    0.000000    
-8.007416    142.062408    49.849121    5.253659    6.137776    -53.069462    0.444994    3.344660    -2.096385    0.752664    -2.737238    -0.677027    16.984806    -0.467810    9.782456    -8.172465    6.544312    6.871157    11.986032    3.210477    -16.075476    -8.911415    -4.294967    -24.543530    13.956110    -1.929249    -51.367836    -0.629694    5.073833    -44.386478    -7.130794    -1.625885    -6.594487    29.603170    -23.186060    40.525417    7.481870    -19.499407    105.902939    14.339803    -25.087530    30.321016    43.857609    -23.581560    16.091961    -26.755484    38.477398    -4.468413    -13.337717    -16.269247    40.478889    0.000000    0.000000    0.000000    -33.426495    -23.128942    -17.353027    4.737792    34.850250    -5.972635    21.420324    -3.105303    0.647287    0.000000    0.000000    0.000000    
-7.929939    142.066025    49.961132    5.223299    6.088522    -53.106602    0.417530    3.339625    -2.118028    0.806775    -2.756565    -0.683074    17.030315    -0.430744    9.804663    -8.219054    6.525758    6.887546    11.974197    3.245483    -16.081993    -8.941045    -4.280557    -24.513224    13.983377    -1.934415    -51.334480    -0.622893    5.073027    -44.215202    -7.124168    -1.539950    -6.589742    29.718077    -23.278708    40.771408    7.380468    -19.674360    105.951355    14.403958    -25.123783    30.326992    43.830673    -23.526680    16.109383    -26.855164    38.541954    -4.416690    -13.263489    -16.296350    40.436058    0.000000    0.000000    0.000000    -33.409374    -23.033510    -17.347021    4.615417    34.691704    -5.923486    21.454720    -3.048320    0.697249    0.000000    0.000000    0.000000    
